<?xml version="1.0" encoding="utf-8"?>
<!-- Generator: Adobe Illustrator 28.1.0, SVG Export Plug-In . SVG Version: 6.00 Build 0)  -->
<svg version="1.1" id="Laag_1" xmlns="http://www.w3.org/2000/svg" xmlns:xlink="http://www.w3.org/1999/xlink" x="0px" y="0px"
	 viewBox="0 0 387.6 492" style="enable-background:new 0 0 387.6 492;" xml:space="preserve">
<style type="text/css">
	.st0{fill:#BED2AC;}
	.st1{fill:#FFFFFF;}
</style>
<path class="st0" d="M41.5,371.4c0-83.5,0-167.1,0-250.6c0.3-0.8,0.7-1.6,0.8-2.5c1-11.3,10.8-21.8,21.8-23.4
	c1.4-0.2,2.8-0.6,4.2-0.8c83.7,0,167.4,0,251.1,0c0.8,0.3,1.6,0.7,2.5,0.8c11.3,1,21.8,10.7,23.5,21.7c0.2,1.4,0.6,2.8,0.8,4.2
	c0,83.5,0,167.1,0,250.6c-0.3,0.8-0.7,1.6-0.7,2.5c-0.4,4.9-2.3,9.1-5.2,13c-6,8-14.5,11-24.1,11c-79.6,0-159.2,0-238.8,0
	c-3.7,0-7.3-0.2-11-0.5c-11.8-0.8-21.3-9.9-23.9-21.4C42.1,374.5,41.8,373,41.5,371.4z M208.9,224.2c0-3.6,0-6.7,0-9.7
	c0-5.9-3.1-9-8.9-9c-11,0-22,0-33,0c-6,0-9.1,3.1-9.1,9.2c0,47,0,94,0,141c0,6.1,3.3,9.3,9.4,9.3c10.7,0,21.4,0,32.1,0
	c6.4,0,9.5-3.1,9.5-9.4c0-24,0-47.9,0-71.9c0-7.9,1.7-15.5,5.1-22.6c4.9-10.1,14.1-15.3,25.4-14.2c10.7,1,18,7.1,20.8,18.2
	c1.4,5.5,2.2,11.3,2.2,17c0.2,24.4,0.1,48.9,0.1,73.3c0,6.8,2.8,9.6,9.8,9.6c10.9,0,21.8,0,32.7,0c6.3,0,9.6-3.2,9.6-9.4
	c-0.1-28.8-0.1-57.6-0.6-86.4c-0.2-11.6-2-23-6.4-33.9c-5.8-14.3-15.4-24.7-30.6-29.3c-11.6-3.5-23.3-3.7-35.2-1.8
	c-11.6,1.8-21.5,6.6-29.3,15.5C211.5,221,210.4,222.4,208.9,224.2z M136.3,285.2c0-23.2,0-46.5,0-69.7c0-6.7-3.3-10-9.7-10
	c-10.6,0-21.2,0-31.8,0c-6.3,0-9.4,3.2-9.4,9.5c0,46.8,0,93.6,0,140.4c0,6.3,3.3,9.6,9.7,9.7c10.1,0,20.2,0,30.3,0
	c7.8,0,10.9-3.1,10.9-11C136.3,331.1,136.3,308.2,136.3,285.2z M143.5,160.1c0-18.1-14.8-32.9-32.8-32.9
	c-17.9,0-32.8,14.6-32.8,32.7c0.1,18.8,14.7,32.7,32.9,32.9C128.7,192.9,143.4,178,143.5,160.1z"/>
<path class="st1" d="M60.2,20.1c-1.4,0.3-2.8,0.6-4.2,0.8C45,22.6,35.2,33,34.2,44.3c-0.1,0.8-0.5,1.6-0.8,2.5c0-8.9,0-17.8,0-26.7
	C42.4,20.1,51.3,20.1,60.2,20.1z"/>
<path class="st1" d="M338.1,46.8c-0.3-1.4-0.6-2.8-0.8-4.2c-1.7-11-12.2-20.7-23.5-21.7c-0.8-0.1-1.6-0.5-2.5-0.8
	c8.9,0,17.9,0,26.8,0C338.1,29,338.1,37.9,338.1,46.8z"/>
</svg>
