<?xml version="1.0" encoding="utf-8"?>
<!-- Generator: Adobe Illustrator 28.1.0, SVG Export Plug-In . SVG Version: 6.00 Build 0)  -->
<svg version="1.1" id="Laag_1" xmlns="http://www.w3.org/2000/svg" xmlns:xlink="http://www.w3.org/1999/xlink" x="0px" y="0px"
	 viewBox="0 0 800 800" style="enable-background:new 0 0 800 800;" xml:space="preserve">
<style type="text/css">
	.st0{fill-rule:evenodd;clip-rule:evenodd;fill:#C1D6AE;}
</style>
<path class="st0" d="M666.7,133.3c55.2,0,100,44.8,100,100v333.3c0,55.2-44.8,100-100,100H133.3c-55.2,0-100-44.8-100-100V233.3
	c0-55.2,44.8-100,100-100H666.7z M641.8,200H158.2l221.1,174.6c12.1,9.6,29.2,9.6,41.3,0L641.8,200z M100,239v327.7
	c0,18.4,14.9,33.3,33.3,33.3h533.3c18.4,0,33.3-14.9,33.3-33.3V239L462,426.9c-36.3,28.7-87.6,28.7-123.9,0L100,239z"/>
</svg>
