<?xml version="1.0" encoding="utf-8"?>
<!-- Generator: Adobe Illustrator 28.1.0, SVG Export Plug-In . SVG Version: 6.00 Build 0)  -->
<svg version="1.1" id="Laag_1" xmlns="http://www.w3.org/2000/svg" xmlns:xlink="http://www.w3.org/1999/xlink" x="0px" y="0px"
	 viewBox="0 0 800 800" style="enable-background:new 0 0 800 800;" xml:space="preserve">
<style type="text/css">
	.st0{fill:#C1D6AE;}
	.st1{fill-rule:evenodd;clip-rule:evenodd;fill:#C1D6AE;}
</style>
<path class="st0" d="M518.5,484.9l-15.2,16c0,0-36.1,38-134.6-65.7c-98.5-103.7-62.4-141.7-62.4-141.7l9.6-10.1
	c23.6-24.8,25.8-64.6,5.2-93.7l-42-59.4c-25.4-36-74.6-40.7-103.7-10l-52.3,55.1c-14.5,15.2-24.1,34.9-23,56.8
	c3,56,26.9,176.4,160.4,317c141.6,149,274.4,155,328.7,149.6c17.2-1.7,32.1-11,44.2-23.6l47.4-49.9c32-33.7,23-91.3-17.9-114.9
	l-63.7-36.7C572.2,458.3,539.5,462.8,518.5,484.9z"/>
<path class="st0" d="M442,62.7c2.2-13.6,15.1-22.9,28.7-20.7c0.8,0.2,3.6,0.7,5,1c2.8,0.6,6.8,1.6,11.8,3
	c9.9,2.9,23.7,7.6,40.3,15.2C561,76.5,605.1,103.1,651,149c45.9,45.9,72.5,90.1,87.7,123.3c7.6,16.6,12.4,30.4,15.2,40.3
	c1.4,4.9,2.4,8.9,3,11.8c0.3,1.4,0.6,2.6,0.7,3.4l0.2,1c2.2,13.6-7,27-20.6,29.3c-13.6,2.2-26.4-7-28.7-20.6
	c-0.1-0.4-0.3-1.3-0.5-2.3c-0.4-1.8-1.1-4.8-2.2-8.6c-2.3-7.7-6.2-19.3-12.7-33.4c-13-28.3-36.4-67.5-77.6-108.7
	c-41.3-41.3-80.4-64.6-108.7-77.6c-14.2-6.5-25.7-10.4-33.4-12.7c-3.9-1.1-8.7-2.2-10.6-2.7C449.3,89.1,439.8,76.3,442,62.7z"/>
<path class="st1" d="M449.5,177.6c3.8-13.3,17.6-21,30.9-17.2l-6.9,24c6.9-24,6.9-24,6.9-24l0,0l0.1,0l0.1,0l0.3,0.1l0.7,0.2
	c0.5,0.2,1.1,0.4,1.9,0.6c1.5,0.5,3.5,1.3,5.9,2.3c4.9,2.1,11.5,5.3,19.6,10.1c16.3,9.7,38.6,25.7,64.8,51.9
	c26.2,26.2,42.2,48.4,51.9,64.8c4.8,8.2,8,14.8,10.1,19.6c1,2.4,1.8,4.4,2.3,5.9c0.3,0.7,0.5,1.4,0.6,1.9l0.2,0.7l0.1,0.3l0,0.1
	l0,0.1c0,0,0,0-24,6.9l24-6.9c3.8,13.3-3.9,27.1-17.2,30.9c-13.2,3.8-26.9-3.8-30.8-16.8l-0.1-0.4c-0.2-0.5-0.5-1.5-1.2-2.9
	c-1.2-2.9-3.5-7.6-7.2-13.9c-7.4-12.6-20.9-31.5-44.2-54.9c-23.3-23.3-42.3-36.8-54.9-44.2c-6.3-3.7-11-6-13.9-7.2
	c-1.4-0.6-2.4-1-2.9-1.2l-0.4-0.1C453.3,204.5,445.8,190.8,449.5,177.6z"/>
</svg>
